<?xml version="1.0" encoding="UTF-8"?>
<svg xmlns="http://www.w3.org/2000/svg" xmlns:xlink="http://www.w3.org/1999/xlink" width="170.0787pt" height="42.5197pt" viewBox="0 0 170.0787 42.5197">
<path fill-rule="nonzero" fill="#1d1d1b" fill-opacity="1" d="M 52.289062 38.328125 C 51.714844 38.328125 51.210938 38.210938 50.773438 37.980469 C 50.328125 37.746094 50.019531 37.410156 49.839844 36.972656 L 50.324219 36.648438 C 50.460938 37.019531 50.703125 37.3125 51.054688 37.519531 C 51.402344 37.730469 51.832031 37.832031 52.335938 37.832031 C 52.832031 37.832031 53.222656 37.730469 53.507812 37.535156 C 53.789062 37.339844 53.929688 37.082031 53.929688 36.757812 C 53.929688 36.539062 53.859375 36.351562 53.722656 36.1875 C 53.582031 36.023438 53.316406 35.902344 52.933594 35.820312 L 51.613281 35.539062 C 51.078125 35.425781 50.695312 35.242188 50.460938 34.992188 C 50.226562 34.738281 50.109375 34.429688 50.109375 34.066406 C 50.109375 33.765625 50.199219 33.496094 50.382812 33.253906 C 50.5625 33.015625 50.8125 32.820312 51.132812 32.671875 C 51.453125 32.527344 51.828125 32.453125 52.257812 32.453125 C 52.820312 32.453125 53.289062 32.566406 53.65625 32.789062 C 54.027344 33.007812 54.285156 33.339844 54.4375 33.785156 L 53.960938 34.089844 C 53.847656 33.691406 53.640625 33.402344 53.335938 33.21875 C 53.03125 33.039062 52.671875 32.949219 52.257812 32.949219 C 51.941406 32.949219 51.660156 33 51.425781 33.09375 C 51.1875 33.183594 51.003906 33.3125 50.875 33.476562 C 50.742188 33.640625 50.675781 33.824219 50.675781 34.035156 C 50.675781 34.253906 50.753906 34.453125 50.902344 34.628906 C 51.054688 34.804688 51.320312 34.9375 51.703125 35.019531 L 53.058594 35.3125 C 53.59375 35.421875 53.96875 35.597656 54.179688 35.824219 C 54.386719 36.054688 54.492188 36.339844 54.492188 36.679688 C 54.492188 37.007812 54.402344 37.300781 54.222656 37.550781 C 54.042969 37.804688 53.785156 38 53.457031 38.128906 C 53.121094 38.261719 52.734375 38.328125 52.289062 38.328125 Z M 57.027344 30.996094 L 57.027344 36.722656 C 57.027344 37.078125 57.113281 37.347656 57.28125 37.53125 C 57.453125 37.714844 57.695312 37.808594 58.019531 37.808594 C 58.230469 37.808594 58.417969 37.773438 58.578125 37.699219 C 58.742188 37.628906 58.886719 37.527344 59.015625 37.390625 L 59.230469 37.855469 C 59.085938 38 58.90625 38.109375 58.6875 38.195312 C 58.46875 38.28125 58.222656 38.328125 57.953125 38.328125 C 57.65625 38.328125 57.398438 38.273438 57.171875 38.164062 C 56.945312 38.054688 56.773438 37.890625 56.648438 37.660156 C 56.523438 37.433594 56.460938 37.148438 56.460938 36.804688 L 56.460938 31.152344 Z M 59.136719 32.566406 L 59.136719 33.054688 L 55.332031 33.054688 L 55.332031 32.566406 Z M 63.804688 34.496094 C 63.804688 34.007812 63.671875 33.628906 63.410156 33.359375 C 63.148438 33.085938 62.769531 32.949219 62.277344 32.949219 C 61.851562 32.949219 61.480469 33.042969 61.175781 33.226562 C 60.863281 33.410156 60.632812 33.71875 60.480469 34.148438 L 60.019531 33.855469 C 60.183594 33.410156 60.460938 33.066406 60.851562 32.820312 C 61.238281 32.574219 61.71875 32.453125 62.292969 32.453125 C 62.703125 32.453125 63.070312 32.527344 63.382812 32.671875 C 63.695312 32.820312 63.9375 33.039062 64.109375 33.320312 C 64.285156 33.609375 64.371094 33.96875 64.371094 34.398438 L 64.371094 37.222656 C 64.371094 37.625 64.550781 37.820312 64.910156 37.820312 C 65.066406 37.820312 65.207031 37.796875 65.316406 37.742188 L 65.285156 38.195312 C 65.15625 38.261719 64.992188 38.296875 64.785156 38.296875 C 64.613281 38.296875 64.453125 38.261719 64.300781 38.195312 C 64.152344 38.125 64.027344 38.011719 63.933594 37.855469 C 63.839844 37.695312 63.792969 37.480469 63.792969 37.210938 L 63.792969 36.90625 L 63.949219 36.894531 C 63.882812 37.214844 63.734375 37.484375 63.503906 37.699219 C 63.273438 37.914062 63.007812 38.074219 62.707031 38.175781 C 62.40625 38.277344 62.105469 38.328125 61.804688 38.328125 C 61.449219 38.328125 61.136719 38.269531 60.855469 38.15625 C 60.578125 38.046875 60.355469 37.878906 60.199219 37.664062 C 60.042969 37.449219 59.964844 37.1875 59.964844 36.871094 C 59.964844 36.449219 60.105469 36.109375 60.390625 35.847656 C 60.671875 35.589844 61.066406 35.410156 61.582031 35.3125 L 63.917969 34.851562 L 63.917969 35.324219 L 61.863281 35.730469 C 61.417969 35.820312 61.085938 35.953125 60.871094 36.125 C 60.648438 36.296875 60.539062 36.53125 60.539062 36.824219 C 60.539062 37.144531 60.65625 37.390625 60.890625 37.566406 C 61.125 37.742188 61.457031 37.832031 61.882812 37.832031 C 62.101562 37.832031 62.324219 37.800781 62.550781 37.742188 C 62.777344 37.679688 62.988281 37.585938 63.179688 37.453125 C 63.371094 37.324219 63.523438 37.15625 63.636719 36.953125 C 63.75 36.753906 63.804688 36.511719 63.804688 36.226562 Z M 66.484375 38.214844 L 66.484375 32.566406 L 66.992188 32.566406 L 67.023438 33.742188 C 67.191406 33.335938 67.460938 33.019531 67.835938 32.789062 C 68.207031 32.566406 68.625 32.453125 69.082031 32.453125 C 69.570312 32.453125 69.996094 32.570312 70.355469 32.804688 C 70.710938 33.039062 70.957031 33.378906 71.09375 33.832031 C 71.191406 33.546875 71.347656 33.300781 71.570312 33.09375 C 71.789062 32.882812 72.042969 32.722656 72.339844 32.609375 C 72.628906 32.5 72.933594 32.441406 73.25 32.441406 C 73.644531 32.441406 74 32.519531 74.320312 32.671875 C 74.636719 32.828125 74.894531 33.0625 75.085938 33.375 C 75.277344 33.6875 75.375 34.078125 75.375 34.542969 L 75.375 38.203125 L 74.808594 38.203125 L 74.808594 34.601562 C 74.808594 34.042969 74.664062 33.625 74.367188 33.351562 C 74.066406 33.078125 73.671875 32.941406 73.183594 32.941406 C 72.828125 32.941406 72.5 33.023438 72.199219 33.195312 C 71.898438 33.363281 71.660156 33.601562 71.484375 33.90625 C 71.308594 34.210938 71.21875 34.5625 71.21875 34.960938 L 71.21875 38.214844 L 70.652344 38.214844 L 70.652344 34.613281 C 70.652344 34.054688 70.503906 33.640625 70.203125 33.363281 C 69.902344 33.089844 69.511719 32.949219 69.027344 32.949219 C 68.6875 32.949219 68.367188 33.035156 68.066406 33.195312 C 67.765625 33.363281 67.519531 33.601562 67.332031 33.910156 C 67.144531 34.222656 67.046875 34.589844 67.046875 35.019531 L 67.046875 38.214844 Z M 77.332031 40.589844 L 77.332031 32.566406 L 77.839844 32.566406 L 77.886719 34.136719 L 77.804688 34.046875 C 77.90625 33.722656 78.054688 33.441406 78.261719 33.199219 C 78.472656 32.960938 78.722656 32.773438 79.023438 32.644531 C 79.328125 32.519531 79.652344 32.453125 80.007812 32.453125 C 80.492188 32.453125 80.925781 32.570312 81.308594 32.804688 C 81.691406 33.039062 81.996094 33.375 82.222656 33.808594 C 82.449219 34.246094 82.5625 34.773438 82.5625 35.390625 C 82.5625 36.003906 82.449219 36.527344 82.222656 36.96875 C 81.996094 37.410156 81.691406 37.746094 81.300781 37.980469 C 80.914062 38.210938 80.476562 38.328125 79.984375 38.328125 C 79.46875 38.328125 79.015625 38.191406 78.632812 37.914062 C 78.246094 37.640625 77.976562 37.269531 77.828125 36.804688 L 77.894531 36.699219 L 77.894531 40.589844 Z M 79.917969 37.832031 C 80.558594 37.832031 81.066406 37.613281 81.441406 37.175781 C 81.8125 36.738281 81.996094 36.144531 81.996094 35.390625 C 81.996094 34.636719 81.8125 34.042969 81.441406 33.605469 C 81.074219 33.167969 80.570312 32.949219 79.941406 32.949219 C 79.539062 32.949219 79.1875 33.050781 78.882812 33.25 C 78.582031 33.449219 78.335938 33.730469 78.160156 34.097656 C 77.984375 34.460938 77.894531 34.894531 77.894531 35.390625 C 77.894531 35.882812 77.980469 36.308594 78.15625 36.679688 C 78.332031 37.046875 78.570312 37.332031 78.875 37.53125 C 79.179688 37.730469 79.523438 37.832031 79.917969 37.832031 Z M 87.644531 34.496094 C 87.644531 34.007812 87.511719 33.628906 87.25 33.359375 C 86.988281 33.085938 86.609375 32.949219 86.117188 32.949219 C 85.691406 32.949219 85.320312 33.042969 85.015625 33.226562 C 84.703125 33.410156 84.472656 33.71875 84.324219 34.148438 L 83.859375 33.855469 C 84.023438 33.410156 84.304688 33.066406 84.691406 32.820312 C 85.078125 32.574219 85.558594 32.453125 86.132812 32.453125 C 86.542969 32.453125 86.910156 32.527344 87.222656 32.671875 C 87.535156 32.820312 87.777344 33.039062 87.949219 33.320312 C 88.125 33.609375 88.210938 33.96875 88.210938 34.398438 L 88.210938 37.222656 C 88.210938 37.625 88.390625 37.820312 88.75 37.820312 C 88.910156 37.820312 89.046875 37.796875 89.160156 37.742188 L 89.125 38.195312 C 88.996094 38.261719 88.832031 38.296875 88.625 38.296875 C 88.453125 38.296875 88.292969 38.261719 88.144531 38.195312 C 87.992188 38.125 87.867188 38.011719 87.773438 37.855469 C 87.683594 37.695312 87.632812 37.480469 87.632812 37.210938 L 87.632812 36.90625 L 87.789062 36.894531 C 87.722656 37.214844 87.574219 37.484375 87.34375 37.699219 C 87.113281 37.914062 86.847656 38.074219 86.546875 38.175781 C 86.246094 38.277344 85.945312 38.328125 85.644531 38.328125 C 85.289062 38.328125 84.976562 38.269531 84.695312 38.15625 C 84.417969 38.046875 84.199219 37.878906 84.039062 37.664062 C 83.882812 37.449219 83.804688 37.1875 83.804688 36.871094 C 83.804688 36.449219 83.945312 36.109375 84.230469 35.847656 C 84.511719 35.589844 84.90625 35.410156 85.421875 35.3125 L 87.757812 34.851562 L 87.757812 35.324219 L 85.703125 35.730469 C 85.257812 35.820312 84.925781 35.953125 84.710938 36.125 C 84.488281 36.296875 84.378906 36.53125 84.378906 36.824219 C 84.378906 37.144531 84.5 37.390625 84.730469 37.566406 C 84.964844 37.742188 85.296875 37.832031 85.726562 37.832031 C 85.941406 37.832031 86.164062 37.800781 86.390625 37.742188 C 86.617188 37.679688 86.828125 37.585938 87.019531 37.453125 C 87.210938 37.324219 87.363281 37.15625 87.476562 36.953125 C 87.589844 36.753906 87.644531 36.511719 87.644531 36.226562 Z M 95.484375 38.328125 C 94.914062 38.328125 94.40625 38.210938 93.96875 37.980469 C 93.527344 37.746094 93.214844 37.410156 93.035156 36.972656 L 93.519531 36.648438 C 93.65625 37.019531 93.902344 37.3125 94.25 37.519531 C 94.597656 37.730469 95.027344 37.832031 95.53125 37.832031 C 96.027344 37.832031 96.417969 37.730469 96.703125 37.535156 C 96.984375 37.339844 97.125 37.082031 97.125 36.757812 C 97.125 36.539062 97.054688 36.351562 96.917969 36.1875 C 96.777344 36.023438 96.515625 35.902344 96.128906 35.820312 L 94.808594 35.539062 C 94.277344 35.425781 93.890625 35.242188 93.65625 34.992188 C 93.421875 34.738281 93.304688 34.429688 93.304688 34.066406 C 93.304688 33.765625 93.394531 33.496094 93.578125 33.253906 C 93.757812 33.015625 94.007812 32.820312 94.328125 32.671875 C 94.648438 32.527344 95.023438 32.453125 95.453125 32.453125 C 96.015625 32.453125 96.484375 32.566406 96.851562 32.789062 C 97.222656 33.007812 97.480469 33.339844 97.632812 33.785156 L 97.15625 34.089844 C 97.046875 33.691406 96.835938 33.402344 96.535156 33.21875 C 96.230469 33.039062 95.867188 32.949219 95.453125 32.949219 C 95.136719 32.949219 94.859375 33 94.621094 33.09375 C 94.382812 33.183594 94.203125 33.3125 94.070312 33.476562 C 93.9375 33.640625 93.871094 33.824219 93.871094 34.035156 C 93.871094 34.253906 93.949219 34.453125 94.097656 34.628906 C 94.25 34.804688 94.515625 34.9375 94.898438 35.019531 L 96.253906 35.3125 C 96.789062 35.421875 97.164062 35.597656 97.375 35.824219 C 97.582031 36.054688 97.691406 36.339844 97.691406 36.679688 C 97.691406 37.007812 97.601562 37.300781 97.421875 37.550781 C 97.238281 37.804688 96.980469 38 96.652344 38.128906 C 96.320312 38.261719 95.929688 38.328125 95.484375 38.328125 Z M 101.589844 38.328125 C 101.066406 38.328125 100.605469 38.210938 100.199219 37.980469 C 99.792969 37.746094 99.472656 37.410156 99.246094 36.96875 C 99.015625 36.527344 98.898438 36.003906 98.898438 35.390625 C 98.898438 34.78125 99.015625 34.253906 99.246094 33.816406 C 99.472656 33.375 99.789062 33.039062 100.183594 32.804688 C 100.578125 32.570312 101.023438 32.453125 101.519531 32.453125 C 102.03125 32.453125 102.472656 32.566406 102.832031 32.789062 C 103.195312 33.019531 103.472656 33.332031 103.667969 33.734375 C 103.863281 34.140625 103.960938 34.601562 103.960938 35.132812 C 103.960938 35.199219 103.960938 35.265625 103.957031 35.332031 C 103.953125 35.394531 103.949219 35.453125 103.9375 35.503906 L 99.25 35.503906 L 99.25 34.996094 L 103.691406 34.996094 L 103.410156 35.074219 C 103.398438 34.425781 103.230469 33.910156 102.894531 33.527344 C 102.558594 33.144531 102.097656 32.949219 101.511719 32.949219 C 101.101562 32.949219 100.746094 33.046875 100.4375 33.238281 C 100.125 33.429688 99.886719 33.710938 99.714844 34.074219 C 99.539062 34.441406 99.453125 34.878906 99.453125 35.390625 C 99.453125 35.894531 99.542969 36.332031 99.71875 36.699219 C 99.894531 37.070312 100.144531 37.351562 100.464844 37.542969 C 100.785156 37.734375 101.15625 37.832031 101.578125 37.832031 C 102.015625 37.832031 102.390625 37.738281 102.703125 37.550781 C 103.015625 37.359375 103.257812 37.101562 103.433594 36.769531 L 103.882812 37.03125 C 103.746094 37.304688 103.566406 37.535156 103.34375 37.722656 C 103.113281 37.914062 102.855469 38.0625 102.558594 38.167969 C 102.265625 38.273438 101.941406 38.328125 101.589844 38.328125 Z M 105.578125 38.214844 L 105.578125 32.566406 L 106.085938 32.566406 L 106.132812 33.980469 L 106.042969 33.898438 C 106.148438 33.589844 106.304688 33.328125 106.515625 33.105469 C 106.726562 32.890625 106.980469 32.726562 107.273438 32.617188 C 107.566406 32.507812 107.882812 32.453125 108.21875 32.453125 C 108.640625 32.453125 109.015625 32.535156 109.339844 32.691406 C 109.664062 32.847656 109.917969 33.082031 110.101562 33.390625 C 110.285156 33.699219 110.378906 34.085938 110.378906 34.554688 L 110.378906 38.214844 L 109.8125 38.214844 L 109.8125 34.734375 C 109.8125 34.117188 109.660156 33.664062 109.355469 33.378906 C 109.050781 33.09375 108.65625 32.949219 108.164062 32.949219 C 107.808594 32.949219 107.480469 33.03125 107.175781 33.195312 C 106.871094 33.359375 106.621094 33.589844 106.429688 33.898438 C 106.238281 34.210938 106.140625 34.585938 106.140625 35.027344 L 106.140625 38.214844 Z M 111.882812 38.214844 L 111.882812 37.773438 L 115.203125 33.695312 L 115.789062 33.039062 L 114.898438 33.054688 L 111.847656 33.054688 L 111.847656 32.566406 L 116.425781 32.566406 L 116.425781 33.007812 L 113.207031 36.984375 L 112.527344 37.742188 L 113.542969 37.730469 L 116.558594 37.730469 L 116.558594 38.214844 Z M 121.496094 34.496094 C 121.496094 34.007812 121.367188 33.628906 121.105469 33.359375 C 120.839844 33.085938 120.464844 32.949219 119.972656 32.949219 C 119.542969 32.949219 119.175781 33.042969 118.867188 33.226562 C 118.558594 33.410156 118.328125 33.71875 118.175781 34.148438 L 117.714844 33.855469 C 117.878906 33.410156 118.15625 33.066406 118.542969 32.820312 C 118.933594 32.574219 119.414062 32.453125 119.984375 32.453125 C 120.398438 32.453125 120.765625 32.527344 121.078125 32.671875 C 121.390625 32.820312 121.632812 33.039062 121.804688 33.320312 C 121.976562 33.609375 122.066406 33.96875 122.066406 34.398438 L 122.066406 37.222656 C 122.066406 37.625 122.242188 37.820312 122.605469 37.820312 C 122.761719 37.820312 122.898438 37.796875 123.011719 37.742188 L 122.980469 38.195312 C 122.851562 38.261719 122.6875 38.296875 122.480469 38.296875 C 122.308594 38.296875 122.148438 38.261719 121.996094 38.195312 C 121.847656 38.125 121.722656 38.011719 121.628906 37.855469 C 121.535156 37.695312 121.488281 37.480469 121.488281 37.210938 L 121.488281 36.90625 L 121.644531 36.894531 C 121.578125 37.214844 121.429688 37.484375 121.199219 37.699219 C 120.96875 37.914062 120.703125 38.074219 120.402344 38.175781 C 120.101562 38.277344 119.800781 38.328125 119.5 38.328125 C 119.144531 38.328125 118.828125 38.269531 118.550781 38.15625 C 118.273438 38.046875 118.050781 37.878906 117.894531 37.664062 C 117.738281 37.449219 117.65625 37.1875 117.65625 36.871094 C 117.65625 36.449219 117.796875 36.109375 118.082031 35.847656 C 118.367188 35.589844 118.761719 35.410156 119.273438 35.3125 L 121.613281 34.851562 L 121.613281 35.324219 L 119.558594 35.730469 C 119.113281 35.820312 118.78125 35.953125 118.5625 36.125 C 118.34375 36.296875 118.234375 36.53125 118.234375 36.824219 C 118.234375 37.144531 118.351562 37.390625 118.585938 37.566406 C 118.820312 37.742188 119.148438 37.832031 119.578125 37.832031 C 119.796875 37.832031 120.019531 37.800781 120.246094 37.742188 C 120.472656 37.679688 120.679688 37.585938 120.871094 37.453125 C 121.066406 37.324219 121.21875 37.15625 121.332031 36.953125 C 121.441406 36.753906 121.496094 36.511719 121.496094 36.226562 Z M 127.433594 38.214844 L 127.433594 32.566406 L 127.90625 32.566406 L 127.972656 33.742188 C 128.117188 33.351562 128.347656 33.039062 128.664062 32.804688 C 128.980469 32.570312 129.359375 32.453125 129.804688 32.453125 C 129.957031 32.453125 130.089844 32.46875 130.210938 32.5 C 130.328125 32.527344 130.433594 32.578125 130.515625 32.644531 L 130.382812 33.144531 C 130.296875 33.089844 130.207031 33.046875 130.109375 33.019531 C 130.007812 32.988281 129.863281 32.972656 129.667969 32.972656 C 129.382812 32.972656 129.109375 33.0625 128.855469 33.238281 C 128.601562 33.414062 128.390625 33.660156 128.234375 33.972656 C 128.074219 34.285156 127.996094 34.644531 127.996094 35.050781 L 127.996094 38.214844 Z M 133.75 38.328125 C 133.226562 38.328125 132.765625 38.210938 132.359375 37.980469 C 131.953125 37.746094 131.632812 37.410156 131.40625 36.96875 C 131.175781 36.527344 131.058594 36.003906 131.058594 35.390625 C 131.058594 34.78125 131.175781 34.253906 131.40625 33.816406 C 131.632812 33.375 131.945312 33.039062 132.34375 32.804688 C 132.738281 32.570312 133.183594 32.453125 133.679688 32.453125 C 134.191406 32.453125 134.628906 32.566406 134.992188 32.789062 C 135.355469 33.019531 135.632812 33.332031 135.828125 33.734375 C 136.023438 34.140625 136.121094 34.601562 136.121094 35.132812 C 136.121094 35.199219 136.121094 35.265625 136.117188 35.332031 C 136.113281 35.394531 136.105469 35.453125 136.097656 35.503906 L 131.410156 35.503906 L 131.410156 34.996094 L 135.851562 34.996094 L 135.570312 35.074219 C 135.558594 34.425781 135.390625 33.910156 135.054688 33.527344 C 134.71875 33.144531 134.253906 32.949219 133.667969 32.949219 C 133.261719 32.949219 132.902344 33.046875 132.597656 33.238281 C 132.285156 33.429688 132.046875 33.710938 131.871094 34.074219 C 131.699219 34.441406 131.613281 34.878906 131.613281 35.390625 C 131.613281 35.894531 131.703125 36.332031 131.878906 36.699219 C 132.054688 37.070312 132.304688 37.351562 132.625 37.542969 C 132.945312 37.734375 133.316406 37.832031 133.738281 37.832031 C 134.175781 37.832031 134.550781 37.738281 134.863281 37.550781 C 135.175781 37.359375 135.417969 37.101562 135.589844 36.769531 L 136.042969 37.03125 C 135.90625 37.304688 135.726562 37.535156 135.5 37.722656 C 135.273438 37.914062 135.015625 38.0625 134.71875 38.167969 C 134.425781 38.273438 134.101562 38.328125 133.75 38.328125 Z M 142.414062 31.527344 L 142.550781 32.023438 C 142.539062 32.023438 142.535156 32.023438 142.527344 32.023438 C 142.519531 32.023438 142.507812 32.023438 142.492188 32.023438 C 142.125 32.023438 141.839844 32.121094 141.640625 32.3125 C 141.4375 32.503906 141.339844 32.773438 141.339844 33.121094 L 140.976562 32.941406 C 140.976562 32.652344 141.039062 32.402344 141.160156 32.191406 C 141.277344 31.984375 141.445312 31.820312 141.65625 31.703125 C 141.867188 31.585938 142.105469 31.527344 142.367188 31.527344 C 142.382812 31.527344 142.394531 31.527344 142.398438 31.527344 C 142.398438 31.527344 142.40625 31.527344 142.414062 31.527344 Z M 140.628906 37.640625 C 141.1875 37.640625 141.621094 37.753906 141.9375 37.988281 C 142.253906 38.222656 142.414062 38.535156 142.414062 38.925781 C 142.414062 39.277344 142.296875 39.578125 142.070312 39.832031 C 141.839844 40.085938 141.527344 40.285156 141.125 40.429688 C 140.726562 40.574219 140.269531 40.644531 139.757812 40.644531 C 138.910156 40.644531 138.253906 40.5 137.804688 40.210938 C 137.351562 39.917969 137.125 39.558594 137.125 39.117188 C 137.125 38.800781 137.242188 38.53125 137.472656 38.296875 C 137.703125 38.0625 138.039062 37.921875 138.484375 37.875 L 138.4375 37.980469 C 138.199219 37.910156 137.984375 37.796875 137.800781 37.640625 C 137.617188 37.480469 137.523438 37.253906 137.523438 36.960938 C 137.523438 36.644531 137.640625 36.386719 137.878906 36.183594 C 138.113281 35.988281 138.429688 35.871094 138.824219 35.84375 L 139.421875 36.046875 L 139.183594 36.046875 C 138.835938 36.070312 138.558594 36.152344 138.351562 36.300781 C 138.144531 36.449219 138.042969 36.636719 138.042969 36.871094 C 138.042969 37.125 138.140625 37.320312 138.34375 37.449219 C 138.539062 37.574219 138.792969 37.640625 139.105469 37.640625 Z M 139.757812 40.167969 C 140.203125 40.167969 140.585938 40.117188 140.902344 40.011719 C 141.21875 39.90625 141.460938 39.765625 141.632812 39.589844 C 141.800781 39.414062 141.882812 39.214844 141.882812 38.992188 C 141.882812 38.730469 141.769531 38.519531 141.539062 38.363281 C 141.308594 38.207031 140.957031 38.125 140.496094 38.125 L 138.890625 38.125 C 138.535156 38.125 138.242188 38.210938 138.007812 38.375 C 137.777344 38.539062 137.65625 38.761719 137.65625 39.042969 C 137.65625 39.378906 137.84375 39.652344 138.21875 39.859375 C 138.59375 40.066406 139.105469 40.167969 139.757812 40.167969 Z M 139.679688 32.453125 C 140.125 32.453125 140.519531 32.53125 140.863281 32.683594 C 141.207031 32.839844 141.46875 33.054688 141.65625 33.328125 C 141.847656 33.605469 141.9375 33.925781 141.9375 34.296875 C 141.9375 34.65625 141.847656 34.976562 141.65625 35.261719 C 141.46875 35.542969 141.207031 35.761719 140.863281 35.917969 C 140.519531 36.070312 140.125 36.148438 139.679688 36.148438 C 138.964844 36.148438 138.40625 35.972656 138.003906 35.632812 C 137.597656 35.289062 137.398438 34.84375 137.398438 34.296875 C 137.398438 33.925781 137.492188 33.605469 137.6875 33.328125 C 137.878906 33.054688 138.148438 32.839844 138.488281 32.683594 C 138.832031 32.53125 139.230469 32.453125 139.679688 32.453125 Z M 139.679688 32.914062 C 139.183594 32.914062 138.777344 33.039062 138.460938 33.292969 C 138.144531 33.546875 137.988281 33.882812 137.988281 34.296875 C 137.988281 34.707031 138.144531 35.046875 138.460938 35.300781 C 138.777344 35.558594 139.183594 35.6875 139.679688 35.6875 C 140.175781 35.6875 140.585938 35.558594 140.894531 35.300781 C 141.207031 35.046875 141.363281 34.707031 141.363281 34.296875 C 141.363281 33.882812 141.207031 33.546875 140.894531 33.292969 C 140.585938 33.039062 140.175781 32.914062 139.679688 32.914062 Z M 145.863281 32.453125 C 146.390625 32.453125 146.855469 32.570312 147.257812 32.804688 C 147.660156 33.039062 147.976562 33.375 148.207031 33.816406 C 148.433594 34.253906 148.550781 34.78125 148.550781 35.390625 C 148.550781 36.003906 148.433594 36.527344 148.207031 36.96875 C 147.976562 37.410156 147.660156 37.746094 147.257812 37.980469 C 146.855469 38.210938 146.390625 38.328125 145.863281 38.328125 C 145.332031 38.328125 144.871094 38.210938 144.464844 37.980469 C 144.0625 37.746094 143.746094 37.410156 143.519531 36.96875 C 143.285156 36.527344 143.171875 36.003906 143.171875 35.390625 C 143.171875 34.78125 143.285156 34.253906 143.519531 33.816406 C 143.746094 33.375 144.0625 33.039062 144.464844 32.804688 C 144.871094 32.570312 145.332031 32.453125 145.863281 32.453125 Z M 145.863281 32.941406 C 145.433594 32.941406 145.0625 33.039062 144.746094 33.234375 C 144.425781 33.429688 144.175781 33.710938 144 34.074219 C 143.824219 34.441406 143.734375 34.878906 143.734375 35.390625 C 143.734375 35.894531 143.824219 36.332031 144 36.699219 C 144.175781 37.070312 144.425781 37.355469 144.746094 37.550781 C 145.0625 37.746094 145.433594 37.84375 145.863281 37.84375 C 146.292969 37.84375 146.664062 37.746094 146.980469 37.550781 C 147.296875 37.355469 147.542969 37.070312 147.71875 36.699219 C 147.894531 36.332031 147.984375 35.894531 147.984375 35.390625 C 147.984375 34.878906 147.894531 34.441406 147.71875 34.074219 C 147.542969 33.710938 147.296875 33.429688 146.980469 33.234375 C 146.664062 33.039062 146.292969 32.941406 145.863281 32.941406 Z M 150.683594 29.96875 L 150.683594 36.882812 C 150.683594 37.230469 150.746094 37.472656 150.867188 37.617188 C 150.984375 37.761719 151.175781 37.832031 151.429688 37.832031 C 151.589844 37.832031 151.714844 37.820312 151.808594 37.796875 C 151.902344 37.773438 152.015625 37.738281 152.140625 37.683594 L 152.066406 38.179688 C 151.964844 38.226562 151.855469 38.265625 151.730469 38.289062 C 151.605469 38.316406 151.46875 38.328125 151.320312 38.328125 C 150.917969 38.328125 150.621094 38.210938 150.421875 37.980469 C 150.222656 37.753906 150.121094 37.394531 150.121094 36.90625 L 150.121094 29.96875 Z M 155.523438 38.328125 C 155 38.328125 154.539062 38.210938 154.132812 37.980469 C 153.726562 37.746094 153.40625 37.410156 153.179688 36.96875 C 152.949219 36.527344 152.832031 36.003906 152.832031 35.390625 C 152.832031 34.78125 152.949219 34.253906 153.179688 33.816406 C 153.40625 33.375 153.71875 33.039062 154.117188 32.804688 C 154.511719 32.570312 154.957031 32.453125 155.453125 32.453125 C 155.964844 32.453125 156.402344 32.566406 156.765625 32.789062 C 157.128906 33.019531 157.40625 33.332031 157.601562 33.734375 C 157.796875 34.140625 157.894531 34.601562 157.894531 35.132812 C 157.894531 35.199219 157.894531 35.265625 157.890625 35.332031 C 157.886719 35.394531 157.878906 35.453125 157.871094 35.503906 L 153.179688 35.503906 L 153.179688 34.996094 L 157.625 34.996094 L 157.34375 35.074219 C 157.332031 34.425781 157.164062 33.910156 156.828125 33.527344 C 156.492188 33.144531 156.027344 32.949219 155.441406 32.949219 C 155.035156 32.949219 154.675781 33.046875 154.371094 33.238281 C 154.058594 33.429688 153.820312 33.710938 153.644531 34.074219 C 153.472656 34.441406 153.386719 34.878906 153.386719 35.390625 C 153.386719 35.894531 153.476562 36.332031 153.652344 36.699219 C 153.828125 37.070312 154.078125 37.351562 154.398438 37.542969 C 154.71875 37.734375 155.089844 37.832031 155.511719 37.832031 C 155.949219 37.832031 156.324219 37.738281 156.636719 37.550781 C 156.949219 37.359375 157.191406 37.101562 157.363281 36.769531 L 157.816406 37.03125 C 157.679688 37.304688 157.5 37.535156 157.273438 37.722656 C 157.046875 37.914062 156.789062 38.0625 156.492188 38.167969 C 156.199219 38.273438 155.875 38.328125 155.523438 38.328125 "/>
<path fill-rule="nonzero" fill="#fe5000" fill-opacity="1" d="M 34.085938 23.6875 L 28.515625 23.6875 C 28.363281 23.839844 28.210938 23.988281 28.050781 24.128906 C 26.132812 25.832031 23.671875 26.773438 21.117188 26.773438 C 19.578125 26.773438 18.09375 26.441406 16.707031 25.792969 L 16.394531 25.644531 L 18.351562 23.6875 L 12.046875 29.96875 L 27.628906 29.96875 Z M 34.085938 23.6875 "/>
<path fill-rule="nonzero" fill="#1d1d1b" fill-opacity="1" d="M 45.984375 17.511719 C 45.984375 18.617188 45.753906 19.5 45.300781 20.128906 L 45.300781 20.132812 C 44.582031 21.132812 43.609375 21.289062 42.246094 20.714844 L 42.246094 14.507812 C 42.648438 14.261719 43.039062 14.136719 43.402344 14.136719 C 44.242188 14.136719 44.863281 14.410156 45.304688 14.980469 C 45.757812 15.558594 45.984375 16.410156 45.984375 17.511719 Z M 50.167969 11.324219 C 48.683594 9.9375 46.703125 9.234375 44.289062 9.234375 C 43.503906 9.234375 42.726562 9.371094 41.976562 9.640625 C 41.292969 9.890625 40.644531 10.21875 40.039062 10.621094 L 39.222656 9.804688 L 36.007812 9.804688 L 36.007812 32.910156 L 42.246094 32.273438 L 42.246094 25.71875 C 42.808594 25.871094 43.410156 25.949219 44.035156 25.949219 C 46.582031 25.949219 48.632812 25.222656 50.136719 23.78125 C 51.644531 22.335938 52.410156 20.214844 52.410156 17.480469 C 52.410156 14.785156 51.65625 12.714844 50.167969 11.324219 "/>
<path fill-rule="nonzero" fill="#1d1d1b" fill-opacity="1" d="M 64.246094 9.234375 L 64.050781 9.234375 C 63.171875 9.234375 62.203125 9.441406 61.171875 9.855469 C 60.234375 10.230469 59.382812 10.671875 58.632812 11.160156 L 57.222656 9.265625 L 53.789062 9.265625 L 53.789062 26.03125 L 60.40625 26.03125 L 60.40625 16.328125 C 61.058594 15.839844 61.835938 15.4375 62.722656 15.128906 C 63.652344 14.804688 64.519531 14.636719 65.296875 14.636719 L 65.617188 14.636719 Z M 64.246094 9.234375 "/>
<path fill-rule="nonzero" fill="#1d1d1b" fill-opacity="1" d="M 106.246094 9.226562 C 104.4375 9.226562 102.457031 9.855469 100.347656 11.101562 C 99.382812 9.855469 97.851562 9.226562 95.789062 9.226562 C 93.921875 9.226562 91.832031 9.917969 89.582031 11.285156 L 88.59375 9.75 L 84.699219 9.75 L 84.699219 26.03125 L 91.117188 26.03125 L 91.117188 15.328125 C 91.558594 15.140625 92.066406 14.957031 92.621094 14.78125 C 93.214844 14.59375 93.648438 14.5 93.902344 14.5 C 94.457031 14.5 94.804688 14.621094 94.945312 14.863281 C 95.109375 15.15625 95.191406 15.585938 95.191406 16.148438 L 95.191406 26.03125 L 101.601562 26.03125 L 101.601562 15.328125 C 102.050781 15.140625 102.550781 14.957031 103.09375 14.78125 C 103.679688 14.59375 104.101562 14.5 104.355469 14.5 C 104.910156 14.5 105.261719 14.621094 105.398438 14.867188 C 105.5625 15.152344 105.644531 15.582031 105.644531 16.148438 L 105.644531 26.03125 L 112.058594 26.03125 L 112.058594 15.59375 C 112.058594 11.367188 110.101562 9.226562 106.246094 9.226562 "/>
<path fill-rule="nonzero" fill="#1d1d1b" fill-opacity="1" d="M 75.109375 9.246094 C 70.480469 9.246094 66.71875 13.011719 66.71875 17.636719 C 66.71875 19.742188 67.503906 21.757812 68.933594 23.308594 L 69.09375 23.488281 L 73.210938 19.367188 L 73.085938 19.207031 C 72.730469 18.753906 72.542969 18.210938 72.542969 17.636719 C 72.542969 16.222656 73.695312 15.074219 75.109375 15.074219 C 76.523438 15.074219 77.675781 16.222656 77.675781 17.636719 C 77.675781 18.097656 77.550781 18.546875 77.3125 18.941406 C 77.210938 19.117188 77.089844 19.277344 76.957031 19.414062 L 71.269531 25.101562 L 71.566406 25.242188 C 72.679688 25.765625 73.871094 26.03125 75.109375 26.03125 C 79.734375 26.03125 83.5 22.265625 83.5 17.636719 C 83.5 13.011719 79.734375 9.246094 75.109375 9.246094 "/>
<path fill-rule="nonzero" fill="#1d1d1b" fill-opacity="1" d="M 121.960938 9.246094 C 117.335938 9.246094 113.570312 13.011719 113.570312 17.636719 C 113.570312 19.742188 114.359375 21.757812 115.785156 23.308594 L 115.949219 23.488281 L 120.0625 19.367188 L 119.941406 19.207031 C 119.585938 18.753906 119.398438 18.210938 119.398438 17.636719 C 119.398438 16.222656 120.546875 15.074219 121.960938 15.074219 C 123.378906 15.074219 124.527344 16.222656 124.527344 17.636719 C 124.527344 18.09375 124.402344 18.546875 124.167969 18.945312 C 124.0625 19.117188 123.941406 19.277344 123.808594 19.417969 L 118.351562 24.871094 L 118.121094 25.101562 L 118.417969 25.242188 C 119.535156 25.765625 120.726562 26.03125 121.960938 26.03125 C 126.589844 26.03125 130.355469 22.265625 130.355469 17.636719 C 130.355469 13.011719 126.589844 9.246094 121.960938 9.246094 "/>
<path fill-rule="nonzero" fill="#1d1d1b" fill-opacity="1" d="M 21.117188 5.890625 C 15.359375 5.890625 10.675781 10.574219 10.675781 16.332031 C 10.675781 18.949219 11.652344 21.453125 13.429688 23.386719 L 13.601562 23.574219 L 18.683594 18.488281 L 18.550781 18.320312 C 18.101562 17.746094 17.863281 17.054688 17.863281 16.332031 C 17.863281 14.535156 19.324219 13.078125 21.117188 13.078125 C 22.910156 13.078125 24.367188 14.535156 24.367188 16.332031 C 24.367188 16.910156 24.210938 17.480469 23.910156 17.984375 C 23.777344 18.207031 23.625 18.40625 23.457031 18.582031 L 16.394531 25.644531 L 16.707031 25.792969 C 18.09375 26.441406 19.578125 26.773438 21.117188 26.773438 C 23.671875 26.773438 26.132812 25.832031 28.050781 24.128906 C 30.277344 22.144531 31.558594 19.300781 31.558594 16.332031 C 31.558594 10.574219 26.875 5.890625 21.117188 5.890625 "/>
<path fill-rule="nonzero" fill="#fe5000" fill-opacity="1" d="M 133.339844 26.03125 C 134.148438 26.03125 134.84375 25.746094 135.417969 25.167969 C 135.992188 24.59375 136.28125 23.914062 136.28125 23.125 C 136.28125 22.3125 135.992188 21.617188 135.417969 21.046875 C 134.84375 20.472656 134.148438 20.183594 133.339844 20.183594 C 132.554688 20.183594 131.871094 20.472656 131.296875 21.046875 C 130.71875 21.617188 130.433594 22.3125 130.433594 23.125 C 130.433594 23.914062 130.71875 24.59375 131.296875 25.167969 C 131.871094 25.746094 132.554688 26.03125 133.339844 26.03125 "/>
<path fill-rule="nonzero" fill="#1d1d1b" fill-opacity="1" d="M 137.457031 26.03125 L 143.25 26.03125 L 143.25 9.246094 L 137.457031 9.839844 Z M 137.457031 26.03125 "/>
<path fill-rule="nonzero" fill="#1d1d1b" fill-opacity="1" d="M 140.335938 7.25 C 141.148438 7.25 141.839844 6.964844 142.417969 6.390625 C 142.992188 5.8125 143.277344 5.132812 143.277344 4.339844 C 143.277344 3.53125 142.992188 2.835938 142.417969 2.265625 C 141.839844 1.691406 141.148438 1.402344 140.335938 1.402344 C 139.550781 1.402344 138.867188 1.691406 138.292969 2.265625 C 137.71875 2.835938 137.433594 3.53125 137.433594 4.339844 C 137.433594 5.132812 137.71875 5.8125 138.292969 6.390625 C 138.867188 6.964844 139.550781 7.25 140.335938 7.25 "/>
<path fill-rule="nonzero" fill="#1d1d1b" fill-opacity="1" d="M 156.820312 20.601562 L 156.585938 20.71875 C 155.9375 21.054688 155.273438 21.222656 154.625 21.222656 C 154.027344 21.222656 153.570312 21.027344 153.238281 20.613281 C 152.890625 20.1875 152.726562 19.636719 152.726562 18.921875 L 152.726562 13.746094 L 157.332031 13.746094 L 156.285156 9.183594 L 152.726562 9.183594 L 152.726562 4.230469 L 147.027344 5.105469 L 147.027344 9.183594 L 144.683594 9.183594 L 144.683594 13.746094 L 147.027344 13.746094 L 147.027344 19.625 C 147.027344 21.652344 147.722656 23.246094 149.085938 24.359375 C 150.441406 25.460938 152.191406 26.019531 154.289062 26.019531 C 154.976562 26.019531 155.730469 25.894531 156.535156 25.640625 C 157.355469 25.382812 157.953125 25.097656 158.355469 24.761719 L 158.492188 24.648438 Z M 156.820312 20.601562 "/>
</svg>
